<svg width="11.000000" height="11.000000" viewBox="0 0 11 11" fill="none" xmlns="http://www.w3.org/2000/svg" xmlns:xlink="http://www.w3.org/1999/xlink">
	<desc>
			Created with Pixso.
	</desc>
	<defs/>
	<path id="Union 41" d="M5.75 5.75L5.75 10C5.75 10.42 5.42 10.75 5 10.75C4.58 10.75 4.25 10.42 4.25 10L4.25 5.75L0 5.75C-0.419998 5.75 -0.75 5.42004 -0.75 5C-0.75 4.57996 -0.419998 4.25 0 4.25L4.25 4.25L4.25 0C4.25 -0.420044 4.58 -0.75 5 -0.75C5.42 -0.75 5.75 -0.420044 5.75 0L5.75 4.25L10 4.25C10.42 4.25 10.75 4.57996 10.75 5C10.75 5.42004 10.42 5.75 10 5.75L5.75 5.75Z" clip-rule="evenodd" fill="#8D8D8D" fill-opacity="1.000000" fill-rule="evenodd"/>
</svg>
