<svg width="16.000000" height="16.000000" viewBox="0 0 16 16" fill="none" xmlns="http://www.w3.org/2000/svg" xmlns:xlink="http://www.w3.org/1999/xlink">
	<desc>
			Created with Pixso.
	</desc>
	<defs>
		<clipPath id="clip106_935">
			<rect id="属性 1=Icon,Property 1=Search" width="16.000000" height="16.000000" fill="white" fill-opacity="0"/>
		</clipPath>
	</defs>
	<g clip-path="url(#clip106_935)">
		<path id="Union 3" d="M13.4127 7.00897C13.4127 7.87891 13.2445 8.71155 12.9082 9.50684C12.6824 10.0405 12.3922 10.5317 12.0374 10.9804L14.3586 13.3015C14.6556 13.5984 14.6557 14.0651 14.3587 14.3621C14.0617 14.6591 13.595 14.6592 13.298 14.3622L10.9778 12.0421C10.5263 12.4006 10.0317 12.6936 9.49395 12.9211C8.69867 13.2574 7.86604 13.4256 6.99607 13.4256C6.12609 13.4256 5.29346 13.2574 4.49818 12.9211C3.73042 12.5963 3.05062 12.1381 2.4588 11.5462C1.86698 10.9544 1.4087 10.2746 1.08396 9.50684C0.747587 8.71155 0.579399 7.87891 0.579399 7.00897C0.579399 6.13898 0.747587 5.30634 1.08396 4.51105C1.4087 3.74329 1.86698 3.06354 2.4588 2.47168C3.05062 1.87988 3.73042 1.42157 4.49818 1.09686C5.29346 0.760498 6.12609 0.592285 6.99607 0.592285C7.86604 0.592285 8.69867 0.760498 9.49395 1.09686C10.2617 1.42157 10.9415 1.87988 11.5333 2.47168C12.1251 3.06354 12.5834 3.74329 12.9082 4.51105C13.2445 5.30634 13.4127 6.13898 13.4127 7.00897M10.2275 10.7151C9.83381 11.0596 9.39453 11.3345 8.90961 11.5396C8.30111 11.7969 7.66326 11.9256 6.99607 11.9256C6.32888 11.9256 5.69102 11.7969 5.08251 11.5396C4.49438 11.2908 3.97337 10.9395 3.51946 10.4855C3.06556 10.0317 2.71423 9.51062 2.46547 8.92249C2.20809 8.31396 2.0794 7.67615 2.0794 7.00897C2.0794 6.34174 2.20809 5.70392 2.46547 5.0954C2.71423 4.50726 3.06556 3.98627 3.51946 3.53235C3.97337 3.07843 4.49438 2.72711 5.08251 2.47833C5.69102 2.22095 6.32888 2.09229 6.99607 2.09229C7.66326 2.09229 8.30111 2.22095 8.90961 2.47833C9.49775 2.72711 10.0188 3.07843 10.4727 3.53235C10.9266 3.98627 11.2779 4.50726 11.5267 5.0954C11.784 5.70392 11.9127 6.34174 11.9127 7.00897C11.9127 7.67615 11.784 8.31396 11.5267 8.92249C11.3216 9.40729 11.0469 9.84644 10.7025 10.2401L10.2275 10.7151L10.2275 10.7151Z" clip-rule="evenodd" fill="#8D8D8D" fill-opacity="1.000000" fill-rule="evenodd"/>
	</g>
</svg>
