<svg width="16.000000" height="16.000000" viewBox="0 0 16 16" fill="none" xmlns="http://www.w3.org/2000/svg" xmlns:xlink="http://www.w3.org/1999/xlink">
	<desc>
			Created with Pixso.
	</desc>
	<defs>
		<clipPath id="clip106_956">
			<rect id="属性 1=Icon,Property 1=时间" width="16.000000" height="16.000000" fill="white" fill-opacity="0"/>
		</clipPath>
	</defs>
	<g clip-path="url(#clip106_956)">
		<path id="Union 16" d="M15.4145 8.00256C15.4145 9.00818 15.2201 9.97058 14.8314 10.8898C14.456 11.7771 13.9263 12.5629 13.2422 13.2469C12.5581 13.931 11.7724 14.4608 10.885 14.8362C9.96584 15.2249 9.00346 15.4193 7.99785 15.4193C6.99224 15.4193 6.02986 15.2249 5.11072 14.8362C4.22331 14.4608 3.43757 13.931 2.75348 13.2469C2.06939 12.5629 1.53967 11.7771 1.16433 10.8898C0.775568 9.97058 0.581184 9.00818 0.581184 8.00256C0.581184 6.99695 0.775566 6.03467 1.16433 5.11548C1.53967 4.22803 2.06939 3.44226 2.75348 2.75818C3.43756 2.0741 4.22331 1.54443 5.11072 1.16907C6.02986 0.780273 6.99224 0.585938 7.99786 0.585938C9.00347 0.585938 9.96584 0.780273 10.885 1.16907C11.7724 1.54443 12.5581 2.0741 13.2422 2.75818C13.9263 3.44226 14.456 4.22803 14.8314 5.11548C15.2201 6.03467 15.4145 6.99695 15.4145 8.00256M13.9145 8.00256C13.9145 7.19983 13.7596 6.43213 13.4499 5.69983C13.1505 4.99207 12.7277 4.36511 12.1816 3.81885C11.6354 3.27271 11.0084 2.84998 10.3007 2.55054C9.56828 2.24084 8.80068 2.08594 7.99786 2.08594C7.19503 2.08594 6.42742 2.24084 5.69505 2.55054C4.98728 2.84998 4.36031 3.27271 3.81414 3.81885C3.26797 4.36511 2.8452 4.99207 2.54584 5.69983C2.23607 6.43213 2.08118 7.19983 2.08118 8.00256C2.08118 8.80542 2.23607 9.573 2.54584 10.3054C2.8452 11.0132 3.26797 11.6401 3.81414 12.1863C4.36031 12.7325 4.98728 13.1553 5.69505 13.4546C6.42742 13.7644 7.19502 13.9193 7.99785 13.9193C8.80068 13.9193 9.56828 13.7644 10.3007 13.4546C11.0084 13.1553 11.6354 12.7325 12.1816 12.1863C12.7277 11.6401 13.1505 11.0132 13.4499 10.3054C13.7596 9.573 13.9145 8.80542 13.9145 8.00256L13.9145 8.00256M8.75109 4.00159L8.75072 7.69373L11.3575 10.3005C11.6545 10.5975 11.6545 11.0642 11.3575 11.3612C11.0605 11.6582 10.5938 11.6582 10.2968 11.3612L7.47037 8.53479C7.3239 8.38831 7.25068 8.21143 7.25069 8.00439L7.25109 4.00134C7.25114 3.58142 7.58117 3.25146 8.00117 3.25146C8.42117 3.25146 8.75114 3.58154 8.75109 4.00159L8.75109 4.00159Z" clip-rule="evenodd" fill="#8D8D8D" fill-opacity="1.000000" fill-rule="evenodd"/>
	</g>
</svg>
